<svg width="375" height="812" viewBox="0 0 375 812" fill="none" xmlns="http://www.w3.org/2000/svg">
<g clip-path="url(#clip0_79_247)">
<rect width="375" height="812" fill="url(#paint0_linear_79_247)"/>
<g filter="url(#filter0_d_79_247)">
<rect width="135" height="5" rx="2.5" transform="matrix(1 0 0 -1 120 795)" fill="black"/>
</g>
<path d="M31.0946 13.1675C28.8022 13.1675 27.1689 14.7349 27.1689 16.8809V16.8955C27.1689 18.9023 28.5898 20.3818 30.6186 20.3818C32.0688 20.3818 32.9916 19.6421 33.3798 18.8071H33.5263C33.5263 18.8877 33.519 18.9683 33.519 19.0488C33.4384 21.0703 32.7279 22.7109 31.0507 22.7109C30.1205 22.7109 29.4687 22.2275 29.1904 21.4878L29.1684 21.4146H27.308L27.3227 21.4951C27.6596 23.1138 29.1098 24.2637 31.0507 24.2637C33.7094 24.2637 35.3134 22.1543 35.3134 18.5947V18.5801C35.3134 14.7715 33.3505 13.1675 31.0946 13.1675ZM31.0873 18.9316C29.8862 18.9316 29.0146 18.0527 29.0146 16.8296V16.8149C29.0146 15.6357 29.9447 14.7056 31.1093 14.7056C32.2812 14.7056 33.1967 15.6504 33.1967 16.8589V16.8735C33.1967 18.0674 32.2812 18.9316 31.0873 18.9316ZM38.4736 17.1519C39.1474 17.1519 39.6381 16.6392 39.6381 15.9946C39.6381 15.3428 39.1474 14.8374 38.4736 14.8374C37.8071 14.8374 37.309 15.3428 37.309 15.9946C37.309 16.6392 37.8071 17.1519 38.4736 17.1519ZM38.4736 22.5864C39.1474 22.5864 39.6381 22.0811 39.6381 21.4292C39.6381 20.7773 39.1474 20.272 38.4736 20.272C37.8071 20.272 37.309 20.7773 37.309 21.4292C37.309 22.0811 37.8071 22.5864 38.4736 22.5864ZM46.7607 24H48.5698V21.9712H49.9907V20.4111H48.5698V13.4312H45.8965C44.4609 15.6138 42.9595 18.0454 41.5898 20.4258V21.9712H46.7607V24ZM43.3477 20.4551V20.3452C44.373 18.5508 45.5962 16.5952 46.6802 14.9399H46.79V20.4551H43.3477ZM54.2056 24H56.0953V13.4312H54.2129L51.4517 15.3721V17.1519L54.0811 15.2915H54.2056V24Z" fill="white"/>
<path fill-rule="evenodd" clip-rule="evenodd" d="M339.089 13.25H353.911C355.159 13.25 355.611 13.38 356.068 13.624C356.524 13.868 356.882 14.2261 357.126 14.6824C357.37 15.1387 357.5 15.5913 357.5 16.8394V21.1606C357.5 22.4087 357.37 22.8613 357.126 23.3176C356.882 23.7739 356.524 24.132 356.068 24.376C355.611 24.62 355.159 24.75 353.911 24.75H339.089C337.841 24.75 337.389 24.62 336.932 24.376C336.476 24.132 336.118 23.7739 335.874 23.3176C335.63 22.8613 335.5 22.4087 335.5 21.1606V16.8394C335.5 15.5913 335.63 15.1387 335.874 14.6824C336.118 14.2261 336.476 13.868 336.932 13.624C337.389 13.38 337.841 13.25 339.089 13.25ZM339.089 14.25C338.102 14.25 337.758 14.3165 337.404 14.5058C337.122 14.6566 336.907 14.872 336.756 15.154C336.567 15.5079 336.5 15.8525 336.5 16.8394V21.1606C336.5 22.1475 336.567 22.4921 336.756 22.846C336.907 23.128 337.122 23.3434 337.404 23.4942C337.758 23.6835 338.102 23.75 339.089 23.75H353.911C354.898 23.75 355.242 23.6835 355.596 23.4942C355.878 23.3434 356.093 23.128 356.244 22.846C356.433 22.4921 356.5 22.1475 356.5 21.1606V16.8394C356.5 15.8525 356.433 15.5079 356.244 15.154C356.093 14.872 355.878 14.6566 355.596 14.5058C355.242 14.3165 354.898 14.25 353.911 14.25H339.089ZM360 18.94C360 20.1766 358.5 20.94 358.5 20.94V16.94C358.5 16.94 360 17.7034 360 18.94Z" fill="white" fill-opacity="0.38"/>
<rect x="337.5" y="15.1667" width="18" height="7.66667" rx="1.6" fill="white"/>
<path fill-rule="evenodd" clip-rule="evenodd" d="M307.123 14.6559C307.1 14.7718 307.1 14.9112 307.1 15.19V22.89C307.1 23.1688 307.1 23.3082 307.123 23.4241C307.218 23.9001 307.59 24.2723 308.066 24.3669C308.182 24.39 308.321 24.39 308.6 24.39C308.879 24.39 309.018 24.39 309.134 24.3669C309.61 24.2723 309.982 23.9001 310.077 23.4241C310.1 23.3082 310.1 23.1688 310.1 22.89V15.19C310.1 14.9112 310.1 14.7718 310.077 14.6559C309.982 14.1799 309.61 13.8077 309.134 13.7131C309.018 13.69 308.879 13.69 308.6 13.69C308.321 13.69 308.182 13.69 308.066 13.7131C307.59 13.8077 307.218 14.1799 307.123 14.6559ZM302.4 17.59C302.4 17.3112 302.4 17.1718 302.423 17.0559C302.518 16.5799 302.89 16.2077 303.366 16.1131C303.482 16.09 303.621 16.09 303.9 16.09C304.179 16.09 304.318 16.09 304.434 16.1131C304.91 16.2077 305.282 16.5799 305.377 17.0559C305.4 17.1718 305.4 17.3112 305.4 17.59V22.89C305.4 23.1688 305.4 23.3082 305.377 23.4241C305.282 23.9001 304.91 24.2723 304.434 24.3669C304.318 24.39 304.179 24.39 303.9 24.39C303.621 24.39 303.482 24.39 303.366 24.3669C302.89 24.2723 302.518 23.9001 302.423 23.4241C302.4 23.3082 302.4 23.1688 302.4 22.89V17.59ZM297.823 19.3559C297.8 19.4718 297.8 19.6112 297.8 19.89V22.89C297.8 23.1688 297.8 23.3082 297.823 23.4241C297.918 23.9001 298.29 24.2723 298.766 24.3669C298.882 24.39 299.021 24.39 299.3 24.39C299.579 24.39 299.718 24.39 299.834 24.3669C300.31 24.2723 300.682 23.9001 300.777 23.4241C300.8 23.3082 300.8 23.1688 300.8 22.89V19.89C300.8 19.6112 300.8 19.4718 300.777 19.3559C300.682 18.8799 300.31 18.5078 299.834 18.4131C299.718 18.39 299.579 18.39 299.3 18.39C299.021 18.39 298.882 18.39 298.766 18.4131C298.29 18.5078 297.918 18.8799 297.823 19.3559ZM293.023 21.3559C293 21.4718 293 21.6112 293 21.89V22.89C293 23.1688 293 23.3082 293.023 23.4241C293.118 23.9001 293.49 24.2723 293.966 24.3669C294.082 24.39 294.221 24.39 294.5 24.39C294.779 24.39 294.918 24.39 295.034 24.3669C295.51 24.2723 295.882 23.9001 295.977 23.4241C296 23.3082 296 23.1688 296 22.89V21.89C296 21.6112 296 21.4718 295.977 21.3559C295.882 20.8799 295.51 20.5078 295.034 20.4131C294.918 20.39 294.779 20.39 294.5 20.39C294.221 20.39 294.082 20.39 293.966 20.4131C293.49 20.5078 293.118 20.8799 293.023 21.3559Z" fill="white"/>
<path fill-rule="evenodd" clip-rule="evenodd" d="M322.8 15.7864C325.035 15.7864 327.184 16.645 328.803 18.1846C328.925 18.3034 329.12 18.3019 329.24 18.1812L330.406 17.0048C330.467 16.9436 330.5 16.8606 330.5 16.7743C330.499 16.688 330.465 16.6055 330.403 16.545C326.153 12.4717 319.447 12.4717 315.197 16.545C315.135 16.6054 315.101 16.688 315.1 16.7742C315.099 16.8605 315.133 16.9435 315.194 17.0048L316.36 18.1812C316.48 18.3021 316.675 18.3036 316.797 18.1846C318.417 16.6449 320.566 15.7863 322.8 15.7864ZM322.8 19.6137C324.028 19.6137 325.212 20.07 326.122 20.894C326.245 21.011 326.439 21.0084 326.559 20.8883L327.723 19.7119C327.785 19.6502 327.819 19.5665 327.818 19.4795C327.817 19.3925 327.781 19.3095 327.718 19.249C324.947 16.6713 320.656 16.6713 317.885 19.249C317.822 19.3095 317.786 19.3925 317.786 19.4796C317.785 19.5666 317.819 19.6503 317.88 19.7119L319.044 20.8883C319.164 21.0084 319.358 21.011 319.481 20.894C320.391 20.0705 321.574 19.6142 322.8 19.6137ZM325.038 22.4213C325.1 22.3602 325.135 22.2761 325.133 22.1889C325.131 22.1017 325.093 22.019 325.029 21.9605C323.742 20.8726 321.858 20.8726 320.572 21.9605C320.508 22.019 320.47 22.1016 320.468 22.1888C320.466 22.2761 320.5 22.3602 320.563 22.4213L322.577 24.4538C322.636 24.5136 322.716 24.5472 322.8 24.5472C322.884 24.5472 322.965 24.5136 323.024 24.4538L325.038 22.4213Z" fill="white"/>
<path d="M-123.71 238.753C-109.273 286.385 -73.3235 326.836 -22.8744 345.12C53.3941 372.762 136.664 340.266 175.186 271.871L215.856 286.612L171.08 190.926L75.3967 235.703L122.51 252.779C95.1834 292.688 43.4113 310.72 -4.16763 293.476C-37.672 281.332 -61.5655 254.427 -71.1696 222.758C-74.4469 211.951 -76.0484 200.59 -75.8113 189.073L-105.265 202.857C-103.781 219.615 -99.1519 235.574 -91.9297 250.084C-75.4083 287.866 -43.0308 317.707 -2.32796 330.222C-52.9875 319.598 -92.9199 282.373 -108.371 234.874C-108.729 233.774 -109.072 232.67 -109.404 231.56C-112.327 221.761 -114.21 211.545 -114.945 201.06L-129.337 170.303C-132.409 193.665 -130.315 216.962 -123.71 238.753ZM-151.066 93.3976L-106.293 189.083L-10.609 144.306L-55.5249 128.026C-27.8903 89.3777 23.0328 72.1419 69.894 89.1259C113.823 105.047 141.217 146.347 141.555 190.486L169.141 177.576C167.144 157.462 160.587 138.14 150.12 121.094C138.795 97.4691 121.065 76.8719 98.1832 62.1843C144.069 83.9939 173.679 128.108 178.578 176.484L195.1 211.792C204.524 137.6 161.84 64.2495 88.5469 37.6839C13.042 10.3183 -69.3279 41.8878 -108.35 108.88L-151.066 93.3976Z" fill="white" fill-opacity="0.1"/>
<rect x="120" y="799" width="135" height="5" rx="2.5" fill="#151D36"/>
<rect x="264.5" y="75.5" width="86" height="27" rx="13.5" stroke="white" stroke-opacity="0.54"/>
<g clip-path="url(#clip1_79_247)">
<path d="M278 86.7778H298V91.2222H278V86.7778Z" fill="#006A44"/>
<path d="M295.778 81.7778H280.222C279.633 81.7778 279.068 82.0119 278.651 82.4286C278.234 82.8454 278 83.4106 278 84V86.7778H298V84C298 83.4106 297.766 82.8454 297.349 82.4286C296.932 82.0119 296.367 81.7778 295.778 81.7778Z" fill="#FDB913"/>
<path d="M280.222 96.2222H295.778C296.367 96.2222 296.932 95.9881 297.349 95.5714C297.766 95.1546 298 94.5894 298 94V91.2222H278V94C278 94.5894 278.234 95.1546 278.651 95.5714C279.068 95.9881 279.633 96.2222 280.222 96.2222Z" fill="#C1272D"/>
</g>
<path d="M304.066 83.958H305.427V92.8037H310.513V94H304.066V83.958ZM318.128 83.958V85.1543H314.744V94H313.363V85.1543H309.979V83.958H318.128Z" fill="white"/>
<path d="M325 87L329 91L333 87" stroke="white" stroke-width="1.6" stroke-linecap="round" stroke-linejoin="round"/>
<circle cx="187.5" cy="647.5" r="407.5" fill="white"/>
<path d="M178.602 340H181.128C182.869 340 184.422 341.094 185.009 342.732L192.301 363.104L199.801 342.54C200.357 341.015 201.807 340 203.43 340H206.431L195.166 368.595C194.704 369.767 193.574 370.536 192.315 370.536C191.042 370.536 189.902 369.75 189.45 368.56L178.602 340ZM175.618 342.984C175.618 341.336 176.954 340 178.602 340H181.128L182.13 349.289V364.055V373.885H175.618V342.984ZM203.43 340H206.431C207.829 340 208.962 341.134 208.962 342.532V373.885H202.429V364.055V350.159L203.43 340ZM231.199 364.802C231.199 364.213 231.112 363.685 230.938 363.217C230.778 362.734 230.473 362.296 230.023 361.903C229.573 361.495 228.941 361.095 228.128 360.703C227.315 360.31 226.262 359.902 224.97 359.48C223.533 358.996 222.168 358.453 220.876 357.849C219.598 357.245 218.465 356.542 217.478 355.742C216.505 354.927 215.736 353.983 215.169 352.911C214.618 351.839 214.342 350.593 214.342 349.173C214.342 347.799 214.632 346.554 215.213 345.436C215.794 344.304 216.607 343.337 217.652 342.537C218.698 341.721 219.932 341.095 221.355 340.657C222.792 340.219 224.368 340 226.081 340C228.419 340 230.459 340.438 232.201 341.314C233.943 342.19 235.294 343.39 236.252 344.915C237.225 346.44 237.711 348.184 237.711 350.147H231.221C231.221 349.181 231.025 348.335 230.633 347.611C230.255 346.871 229.674 346.289 228.89 345.867C228.121 345.444 227.148 345.232 225.972 345.232C224.84 345.232 223.896 345.413 223.141 345.776C222.386 346.123 221.819 346.599 221.442 347.203C221.064 347.792 220.876 348.456 220.876 349.196C220.876 349.755 221.006 350.261 221.268 350.714C221.544 351.167 221.95 351.59 222.487 351.982C223.025 352.375 223.685 352.745 224.469 353.092C225.253 353.439 226.161 353.779 227.192 354.111C228.919 354.655 230.437 355.266 231.744 355.946C233.065 356.625 234.168 357.388 235.054 358.234C235.94 359.079 236.608 360.038 237.058 361.11C237.508 362.182 237.733 363.398 237.733 364.757C237.733 366.192 237.464 367.475 236.927 368.608C236.39 369.74 235.613 370.699 234.597 371.484C233.58 372.269 232.368 372.866 230.96 373.274C229.551 373.681 227.976 373.885 226.233 373.885C224.665 373.885 223.119 373.674 221.594 373.251C220.07 372.813 218.683 372.156 217.435 371.28C216.2 370.405 215.213 369.287 214.473 367.928C213.732 366.569 213.362 364.961 213.362 363.104H219.917C219.917 364.13 220.07 364.999 220.375 365.708C220.68 366.418 221.108 366.992 221.66 367.43C222.226 367.868 222.894 368.185 223.663 368.381C224.447 368.577 225.304 368.675 226.233 368.675C227.366 368.675 228.295 368.509 229.021 368.177C229.762 367.845 230.306 367.385 230.655 366.795C231.018 366.207 231.199 365.542 231.199 364.802Z" fill="url(#paint1_linear_79_247)"/>
<path d="M153.485 340C148.527 340.026 143.644 342.4 140.465 346.869C135.659 353.626 136.396 362.854 141.831 368.7L139.268 372.302L149.676 370.684L148.119 359.86L145.15 364.033C142.117 360.141 141.866 354.468 144.864 350.253C146.975 347.285 150.223 345.707 153.519 345.69C154.644 345.684 155.774 345.86 156.867 346.224L156.388 342.892C154.746 342.544 153.091 342.533 151.5 342.821C147.424 343.345 143.655 345.678 141.304 349.35C143.757 344.634 148.446 341.769 153.419 341.638C153.535 341.635 153.65 341.633 153.765 341.633C154.784 341.632 155.813 341.747 156.835 341.984L160.18 341.464C158.037 340.469 155.753 339.988 153.485 340ZM168.139 341.579L157.732 343.197L159.289 354.021L162.119 350.042C165.024 353.928 165.222 359.494 162.27 363.645C159.502 367.536 154.78 369.036 150.557 367.765L151.005 370.886C152.982 371.282 155.013 371.202 156.938 370.666C159.515 370.24 161.986 369.088 164.038 367.25C160.652 371.161 155.599 372.798 150.841 371.855L147.001 372.452C153.817 375.58 162.032 373.509 166.651 367.017C171.409 360.328 170.735 351.217 165.448 345.363L168.139 341.579Z" fill="url(#paint2_linear_79_247)"/>
<path d="M25.1477 460.886V449.249H32.7159V451.016H27.2557V454.175H32.3239V455.942H27.2557V459.119H32.7614V460.886H25.1477ZM36.8324 449.249V460.886H34.7756V449.249H36.8324ZM40.2145 461.011C39.8698 461.011 39.5743 460.889 39.3281 460.647C39.0819 460.405 38.9607 460.109 38.9645 459.761C38.9607 459.42 39.0819 459.128 39.3281 458.886C39.5743 458.643 39.8698 458.522 40.2145 458.522C40.5478 458.522 40.8376 458.643 41.0838 458.886C41.3338 459.128 41.4607 459.42 41.4645 459.761C41.4607 459.992 41.4001 460.202 41.2827 460.391C41.169 460.581 41.0175 460.732 40.8281 460.846C40.6425 460.956 40.438 461.011 40.2145 461.011ZM47.1974 464.158V452.158H49.2202V453.601H49.3395C49.4455 453.389 49.5952 453.164 49.7884 452.925C49.9815 452.683 50.2429 452.476 50.5724 452.306C50.902 452.132 51.3224 452.045 51.8338 452.045C52.508 452.045 53.116 452.217 53.6577 452.562C54.2031 452.903 54.6349 453.408 54.9531 454.079C55.2751 454.745 55.4361 455.564 55.4361 456.533C55.4361 457.492 55.2789 458.306 54.9645 458.976C54.6501 459.647 54.2221 460.158 53.6804 460.511C53.1387 460.863 52.5251 461.039 51.8395 461.039C51.3395 461.039 50.9247 460.956 50.5952 460.789C50.2656 460.622 50.0005 460.422 49.7997 460.187C49.6027 459.948 49.4493 459.723 49.3395 459.511H49.2543V464.158H47.1974ZM49.2145 456.522C49.2145 457.086 49.294 457.581 49.4531 458.005C49.616 458.429 49.849 458.761 50.152 458.999C50.4588 459.234 50.83 459.351 51.2656 459.351C51.7202 459.351 52.1009 459.23 52.4077 458.988C52.7145 458.742 52.9455 458.406 53.1009 457.982C53.2599 457.554 53.3395 457.067 53.3395 456.522C53.3395 455.98 53.2618 455.499 53.1065 455.079C52.9512 454.658 52.7202 454.329 52.4134 454.09C52.1065 453.851 51.724 453.732 51.2656 453.732C50.8262 453.732 50.4531 453.848 50.1463 454.079C49.8395 454.31 49.6065 454.634 49.4474 455.05C49.2921 455.467 49.2145 455.958 49.2145 456.522ZM59.7088 461.062C59.1558 461.062 58.6577 460.963 58.2145 460.766C57.7751 460.565 57.4266 460.27 57.169 459.88C56.9152 459.49 56.7884 459.009 56.7884 458.437C56.7884 457.944 56.8793 457.537 57.0611 457.215C57.2429 456.893 57.491 456.636 57.8054 456.442C58.1198 456.249 58.474 456.103 58.8679 456.005C59.2656 455.903 59.6766 455.829 60.1009 455.783C60.6122 455.73 61.027 455.683 61.3452 455.641C61.6634 455.596 61.8944 455.528 62.0384 455.437C62.1861 455.342 62.2599 455.196 62.2599 454.999V454.965C62.2599 454.537 62.133 454.206 61.8793 453.971C61.6255 453.736 61.2599 453.619 60.7827 453.619C60.2789 453.619 59.8793 453.728 59.5838 453.948C59.2921 454.168 59.0952 454.427 58.9929 454.726L57.0724 454.454C57.224 453.923 57.474 453.48 57.8224 453.124C58.1709 452.764 58.5971 452.495 59.1009 452.317C59.6046 452.136 60.1615 452.045 60.7713 452.045C61.1918 452.045 61.6103 452.094 62.027 452.192C62.4437 452.291 62.8243 452.454 63.169 452.681C63.5137 452.905 63.7902 453.209 63.9986 453.596C64.2107 453.982 64.3168 454.465 64.3168 455.045V460.886H62.3395V459.687H62.2713C62.1463 459.929 61.9702 460.156 61.7429 460.369C61.5194 460.577 61.2372 460.745 60.8963 460.874C60.5592 460.999 60.1634 461.062 59.7088 461.062ZM60.2429 459.55C60.6558 459.55 61.0137 459.469 61.3168 459.306C61.6198 459.139 61.8527 458.92 62.0156 458.647C62.1823 458.374 62.2656 458.077 62.2656 457.755V456.726C62.2012 456.78 62.0914 456.829 61.9361 456.874C61.7846 456.92 61.6141 456.959 61.4247 456.994C61.2353 457.028 61.0478 457.058 60.8622 457.084C60.6766 457.111 60.5156 457.134 60.3793 457.153C60.0724 457.194 59.7978 457.262 59.5554 457.357C59.313 457.452 59.1217 457.584 58.9815 457.755C58.8414 457.922 58.7713 458.137 58.7713 458.403C58.7713 458.781 58.9096 459.067 59.1861 459.261C59.4626 459.454 59.8149 459.55 60.2429 459.55ZM73.2827 454.465L71.4077 454.67C71.3546 454.48 71.2618 454.302 71.1293 454.136C71.0005 453.969 70.8262 453.834 70.6065 453.732C70.3868 453.63 70.1179 453.579 69.7997 453.579C69.3717 453.579 69.0118 453.672 68.7202 453.857C68.4323 454.043 68.2902 454.283 68.294 454.579C68.2902 454.833 68.383 455.039 68.5724 455.198C68.7656 455.357 69.0838 455.488 69.527 455.59L71.0156 455.908C71.8414 456.086 72.455 456.369 72.8565 456.755C73.2618 457.141 73.4664 457.647 73.4702 458.272C73.4664 458.821 73.3054 459.306 72.9872 459.726C72.6728 460.143 72.2353 460.469 71.6747 460.704C71.1141 460.939 70.4702 461.056 69.7429 461.056C68.6747 461.056 67.8149 460.833 67.1634 460.386C66.5118 459.935 66.1236 459.308 65.9986 458.505L68.0043 458.312C68.0952 458.706 68.2884 459.003 68.5838 459.204C68.8793 459.405 69.2637 459.505 69.7372 459.505C70.2259 459.505 70.6179 459.405 70.9134 459.204C71.2126 459.003 71.3622 458.755 71.3622 458.459C71.3622 458.209 71.2656 458.003 71.0724 457.84C70.883 457.677 70.5876 457.552 70.1861 457.465L68.6974 457.153C67.8603 456.978 67.241 456.685 66.8395 456.272C66.438 455.855 66.2391 455.329 66.2429 454.692C66.2391 454.155 66.3849 453.689 66.6804 453.295C66.9796 452.897 67.3944 452.59 67.9247 452.374C68.4588 452.155 69.0743 452.045 69.7713 452.045C70.794 452.045 71.599 452.262 72.1861 452.698C72.777 453.134 73.1425 453.723 73.2827 454.465ZM68.6577 448.579L69.8111 450.033L70.9645 448.579H72.7656V448.658L70.6179 451.113H69.0099L66.8565 448.658V448.579H68.6577ZM79.5241 452.158V453.749H74.5071V452.158H79.5241ZM75.7457 450.067H77.8026V458.261C77.8026 458.537 77.8442 458.749 77.9276 458.897C78.0147 459.041 78.1283 459.139 78.2685 459.192C78.4086 459.245 78.5639 459.272 78.7344 459.272C78.8632 459.272 78.9806 459.262 79.0866 459.244C79.1965 459.225 79.2798 459.208 79.3366 459.192L79.6832 460.8C79.5734 460.838 79.4162 460.88 79.2116 460.925C79.0109 460.971 78.7647 460.997 78.473 461.005C77.9579 461.02 77.4938 460.942 77.081 460.772C76.6681 460.598 76.3404 460.329 76.098 459.965C75.8594 459.601 75.742 459.147 75.7457 458.601V450.067ZM83.7557 461.062C83.2027 461.062 82.7045 460.963 82.2614 460.766C81.822 460.565 81.4735 460.27 81.2159 459.88C80.9621 459.49 80.8352 459.009 80.8352 458.437C80.8352 457.944 80.9261 457.537 81.108 457.215C81.2898 456.893 81.5379 456.636 81.8523 456.442C82.1667 456.249 82.5208 456.103 82.9148 456.005C83.3125 455.903 83.7235 455.829 84.1477 455.783C84.6591 455.73 85.0739 455.683 85.392 455.641C85.7102 455.596 85.9413 455.528 86.0852 455.437C86.233 455.342 86.3068 455.196 86.3068 454.999V454.965C86.3068 454.537 86.1799 454.206 85.9261 453.971C85.6723 453.736 85.3068 453.619 84.8295 453.619C84.3258 453.619 83.9261 453.728 83.6307 453.948C83.339 454.168 83.142 454.427 83.0398 454.726L81.1193 454.454C81.2708 453.923 81.5208 453.48 81.8693 453.124C82.2178 452.764 82.6439 452.495 83.1477 452.317C83.6515 452.136 84.2083 452.045 84.8182 452.045C85.2386 452.045 85.6572 452.094 86.0739 452.192C86.4905 452.291 86.8712 452.454 87.2159 452.681C87.5606 452.905 87.8371 453.209 88.0455 453.596C88.2576 453.982 88.3636 454.465 88.3636 455.045V460.886H86.3864V459.687H86.3182C86.1932 459.929 86.017 460.156 85.7898 460.369C85.5663 460.577 85.2841 460.745 84.9432 460.874C84.6061 460.999 84.2102 461.062 83.7557 461.062ZM84.2898 459.55C84.7027 459.55 85.0606 459.469 85.3636 459.306C85.6667 459.139 85.8996 458.92 86.0625 458.647C86.2292 458.374 86.3125 458.077 86.3125 457.755V456.726C86.2481 456.78 86.1383 456.829 85.983 456.874C85.8314 456.92 85.661 456.959 85.4716 456.994C85.2822 457.028 85.0947 457.058 84.9091 457.084C84.7235 457.111 84.5625 457.134 84.4261 457.153C84.1193 457.194 83.8447 457.262 83.6023 457.357C83.3598 457.452 83.1686 457.584 83.0284 457.755C82.8883 457.922 82.8182 458.137 82.8182 458.403C82.8182 458.781 82.9564 459.067 83.233 459.261C83.5095 459.454 83.8617 459.55 84.2898 459.55ZM97.3295 454.465L95.4545 454.67C95.4015 454.48 95.3087 454.302 95.1761 454.136C95.0473 453.969 94.8731 453.834 94.6534 453.732C94.4337 453.63 94.1648 453.579 93.8466 453.579C93.4186 453.579 93.0587 453.672 92.767 453.857C92.4792 454.043 92.3371 454.283 92.3409 454.579C92.3371 454.833 92.4299 455.039 92.6193 455.198C92.8125 455.357 93.1307 455.488 93.5739 455.59L95.0625 455.908C95.8883 456.086 96.5019 456.369 96.9034 456.755C97.3087 457.141 97.5133 457.647 97.517 458.272C97.5133 458.821 97.3523 459.306 97.0341 459.726C96.7197 460.143 96.2822 460.469 95.7216 460.704C95.161 460.939 94.517 461.056 93.7898 461.056C92.7216 461.056 91.8617 460.833 91.2102 460.386C90.5587 459.935 90.1705 459.308 90.0455 458.505L92.0511 458.312C92.142 458.706 92.3352 459.003 92.6307 459.204C92.9261 459.405 93.3106 459.505 93.7841 459.505C94.2727 459.505 94.6648 459.405 94.9602 459.204C95.2595 459.003 95.4091 458.755 95.4091 458.459C95.4091 458.209 95.3125 458.003 95.1193 457.84C94.9299 457.677 94.6345 457.552 94.233 457.465L92.7443 457.153C91.9072 456.978 91.2879 456.685 90.8864 456.272C90.4848 455.855 90.286 455.329 90.2898 454.692C90.286 454.155 90.4318 453.689 90.7273 453.295C91.0265 452.897 91.4413 452.59 91.9716 452.374C92.5057 452.155 93.1212 452.045 93.8182 452.045C94.8409 452.045 95.6458 452.262 96.233 452.698C96.8239 453.134 97.1894 453.723 97.3295 454.465ZM100.48 461.011C100.135 461.011 99.84 460.889 99.5938 460.647C99.3475 460.405 99.2263 460.109 99.2301 459.761C99.2263 459.42 99.3475 459.128 99.5938 458.886C99.84 458.643 100.135 458.522 100.48 458.522C100.813 458.522 101.103 458.643 101.349 458.886C101.599 459.128 101.726 459.42 101.73 459.761C101.726 459.992 101.666 460.202 101.548 460.391C101.435 460.581 101.283 460.732 101.094 460.846C100.908 460.956 100.704 461.011 100.48 461.011ZM100.48 454.783C100.135 454.783 99.84 454.662 99.5938 454.42C99.3475 454.173 99.2263 453.878 99.2301 453.533C99.2263 453.192 99.3475 452.901 99.5938 452.658C99.84 452.412 100.135 452.289 100.48 452.289C100.813 452.289 101.103 452.412 101.349 452.658C101.599 452.901 101.726 453.192 101.73 453.533C101.726 453.761 101.666 453.969 101.548 454.158C101.435 454.348 101.283 454.499 101.094 454.613C100.908 454.726 100.704 454.783 100.48 454.783Z" fill="black"/>
<path d="M115.993 457.317V452.158H117.334V460.886H115.993V459.408H115.902C115.697 459.851 115.379 460.228 114.947 460.539C114.516 460.846 113.97 460.999 113.311 460.999C112.766 460.999 112.281 460.88 111.857 460.641C111.432 460.399 111.099 460.035 110.857 459.55C110.614 459.062 110.493 458.446 110.493 457.704V452.158H111.834V457.613C111.834 458.249 112.012 458.757 112.368 459.136C112.728 459.514 113.186 459.704 113.743 459.704C114.076 459.704 114.415 459.619 114.76 459.448C115.108 459.278 115.4 459.016 115.635 458.664C115.874 458.312 115.993 457.863 115.993 457.317ZM125.972 454.113L124.767 454.454C124.691 454.253 124.58 454.058 124.432 453.869C124.288 453.675 124.091 453.516 123.841 453.391C123.591 453.266 123.271 453.204 122.881 453.204C122.347 453.204 121.902 453.327 121.545 453.573C121.193 453.815 121.017 454.124 121.017 454.499C121.017 454.833 121.138 455.096 121.381 455.289C121.623 455.482 122.002 455.643 122.517 455.772L123.812 456.09C124.593 456.28 125.174 456.569 125.557 456.959C125.939 457.346 126.131 457.844 126.131 458.454C126.131 458.954 125.987 459.401 125.699 459.795C125.415 460.189 125.017 460.499 124.506 460.726C123.994 460.954 123.4 461.067 122.722 461.067C121.831 461.067 121.095 460.874 120.511 460.488C119.928 460.101 119.559 459.537 119.403 458.795L120.676 458.476C120.797 458.946 121.027 459.298 121.364 459.533C121.705 459.768 122.15 459.886 122.699 459.886C123.324 459.886 123.82 459.753 124.188 459.488C124.559 459.219 124.744 458.897 124.744 458.522C124.744 458.219 124.638 457.965 124.426 457.761C124.214 457.552 123.888 457.397 123.449 457.295L121.994 456.954C121.195 456.764 120.608 456.471 120.233 456.073C119.862 455.672 119.676 455.17 119.676 454.567C119.676 454.075 119.814 453.639 120.091 453.261C120.371 452.882 120.752 452.584 121.233 452.369C121.718 452.153 122.267 452.045 122.881 452.045C123.744 452.045 124.422 452.234 124.915 452.613C125.411 452.992 125.763 453.492 125.972 454.113ZM131.808 461.067C130.967 461.067 130.242 460.882 129.632 460.511C129.026 460.136 128.558 459.613 128.229 458.942C127.903 458.268 127.74 457.484 127.74 456.59C127.74 455.696 127.903 454.908 128.229 454.226C128.558 453.541 129.017 453.007 129.604 452.624C130.195 452.238 130.884 452.045 131.672 452.045C132.126 452.045 132.575 452.12 133.018 452.272C133.462 452.423 133.865 452.67 134.229 453.011C134.592 453.348 134.882 453.795 135.098 454.351C135.314 454.908 135.422 455.594 135.422 456.408V456.976H128.695V455.817H134.058C134.058 455.325 133.96 454.886 133.763 454.499C133.57 454.113 133.293 453.808 132.933 453.584C132.577 453.361 132.157 453.249 131.672 453.249C131.138 453.249 130.676 453.382 130.286 453.647C129.899 453.908 129.602 454.249 129.393 454.67C129.185 455.09 129.081 455.541 129.081 456.022V456.795C129.081 457.454 129.195 458.012 129.422 458.471C129.653 458.925 129.973 459.272 130.382 459.511C130.791 459.745 131.267 459.863 131.808 459.863C132.161 459.863 132.479 459.814 132.763 459.715C133.051 459.613 133.299 459.461 133.507 459.261C133.715 459.056 133.876 458.802 133.99 458.499L135.286 458.863C135.149 459.302 134.92 459.689 134.598 460.022C134.276 460.351 133.878 460.609 133.405 460.795C132.931 460.976 132.399 461.067 131.808 461.067ZM137.462 460.886V452.158H138.757V453.476H138.848C139.007 453.045 139.295 452.694 139.712 452.425C140.128 452.156 140.598 452.022 141.121 452.022C141.219 452.022 141.342 452.024 141.49 452.028C141.638 452.031 141.75 452.037 141.825 452.045V453.408C141.78 453.397 141.676 453.38 141.513 453.357C141.354 453.331 141.185 453.317 141.007 453.317C140.583 453.317 140.204 453.406 139.871 453.584C139.541 453.759 139.28 454.001 139.087 454.312C138.897 454.619 138.803 454.969 138.803 455.363V460.886H137.462ZM150.119 463.954C148.96 463.954 147.936 463.795 147.045 463.476C146.155 463.162 145.407 462.698 144.801 462.084C144.195 461.471 143.737 460.719 143.426 459.829C143.116 458.939 142.96 457.92 142.96 456.772C142.96 455.662 143.117 454.67 143.432 453.795C143.75 452.92 144.21 452.177 144.812 451.567C145.419 450.954 146.153 450.486 147.017 450.164C147.884 449.842 148.866 449.681 149.96 449.681C151.025 449.681 151.956 449.855 152.756 450.204C153.559 450.548 154.229 451.016 154.767 451.607C155.309 452.194 155.714 452.855 155.983 453.59C156.256 454.325 156.392 455.083 156.392 455.863C156.392 456.412 156.366 456.969 156.312 457.533C156.259 458.098 156.148 458.617 155.977 459.09C155.807 459.56 155.544 459.939 155.188 460.226C154.835 460.514 154.358 460.658 153.756 460.658C153.491 460.658 153.199 460.617 152.881 460.533C152.562 460.45 152.28 460.312 152.034 460.119C151.788 459.925 151.642 459.666 151.597 459.34H151.528C151.438 459.56 151.297 459.768 151.108 459.965C150.922 460.162 150.678 460.319 150.375 460.437C150.076 460.554 149.71 460.605 149.278 460.59C148.786 460.571 148.352 460.461 147.977 460.261C147.602 460.056 147.288 459.78 147.034 459.431C146.784 459.079 146.595 458.672 146.466 458.209C146.341 457.744 146.278 457.242 146.278 456.704C146.278 456.192 146.354 455.725 146.506 455.3C146.657 454.876 146.867 454.505 147.136 454.187C147.409 453.869 147.727 453.615 148.091 453.425C148.458 453.232 148.854 453.113 149.278 453.067C149.657 453.03 150.002 453.047 150.312 453.119C150.623 453.187 150.879 453.291 151.08 453.431C151.28 453.567 151.407 453.719 151.46 453.886H151.528V453.249H152.733V458.386C152.733 458.704 152.822 458.984 153 459.226C153.178 459.469 153.438 459.59 153.778 459.59C154.165 459.59 154.46 459.458 154.665 459.192C154.873 458.927 155.015 458.518 155.091 457.965C155.17 457.412 155.21 456.704 155.21 455.84C155.21 455.333 155.14 454.833 155 454.34C154.864 453.844 154.655 453.38 154.375 452.948C154.098 452.516 153.748 452.136 153.324 451.806C152.9 451.476 152.402 451.219 151.83 451.033C151.261 450.844 150.616 450.749 149.892 450.749C149.002 450.749 148.205 450.887 147.5 451.164C146.799 451.437 146.203 451.836 145.71 452.363C145.222 452.886 144.848 453.522 144.591 454.272C144.337 455.018 144.21 455.867 144.21 456.817C144.21 457.783 144.337 458.641 144.591 459.391C144.848 460.141 145.227 460.774 145.727 461.289C146.231 461.804 146.854 462.194 147.597 462.459C148.339 462.728 149.195 462.863 150.165 462.863C150.581 462.863 150.992 462.823 151.398 462.744C151.803 462.664 152.161 462.577 152.472 462.482C152.782 462.387 153.006 462.317 153.142 462.272L153.46 463.317C153.225 463.416 152.919 463.514 152.54 463.613C152.165 463.711 151.763 463.793 151.335 463.857C150.911 463.922 150.506 463.954 150.119 463.954ZM149.46 459.431C149.968 459.431 150.379 459.329 150.693 459.124C151.008 458.92 151.237 458.611 151.381 458.198C151.525 457.785 151.597 457.264 151.597 456.636C151.597 455.999 151.517 455.503 151.358 455.147C151.199 454.791 150.964 454.541 150.653 454.397C150.343 454.253 149.96 454.181 149.506 454.181C149.074 454.181 148.705 454.295 148.398 454.522C148.095 454.745 147.862 455.045 147.699 455.42C147.54 455.791 147.46 456.196 147.46 456.636C147.46 457.12 147.525 457.577 147.653 458.005C147.782 458.429 147.992 458.774 148.284 459.039C148.576 459.3 148.968 459.431 149.46 459.431ZM161.945 461.067C161.157 461.067 160.465 460.88 159.871 460.505C159.28 460.13 158.818 459.605 158.484 458.931C158.155 458.257 157.99 457.469 157.99 456.567C157.99 455.658 158.155 454.865 158.484 454.187C158.818 453.509 159.28 452.982 159.871 452.607C160.465 452.232 161.157 452.045 161.945 452.045C162.732 452.045 163.422 452.232 164.013 452.607C164.607 452.982 165.07 453.509 165.399 454.187C165.732 454.865 165.899 455.658 165.899 456.567C165.899 457.469 165.732 458.257 165.399 458.931C165.07 459.605 164.607 460.13 164.013 460.505C163.422 460.88 162.732 461.067 161.945 461.067ZM161.945 459.863C162.543 459.863 163.036 459.709 163.422 459.403C163.808 459.096 164.094 458.692 164.28 458.192C164.465 457.692 164.558 457.151 164.558 456.567C164.558 455.984 164.465 455.44 164.28 454.937C164.094 454.433 163.808 454.026 163.422 453.715C163.036 453.405 162.543 453.249 161.945 453.249C161.346 453.249 160.854 453.405 160.467 453.715C160.081 454.026 159.795 454.433 159.609 454.937C159.424 455.44 159.331 455.984 159.331 456.567C159.331 457.151 159.424 457.692 159.609 458.192C159.795 458.692 160.081 459.096 160.467 459.403C160.854 459.709 161.346 459.863 161.945 459.863ZM167.946 460.886V452.158H169.241V453.522H169.355C169.537 453.056 169.83 452.694 170.236 452.437C170.641 452.175 171.128 452.045 171.696 452.045C172.272 452.045 172.751 452.175 173.134 452.437C173.52 452.694 173.821 453.056 174.037 453.522H174.128C174.351 453.071 174.687 452.713 175.134 452.448C175.58 452.179 176.116 452.045 176.741 452.045C177.522 452.045 178.16 452.289 178.656 452.778C179.152 453.262 179.401 454.018 179.401 455.045V460.886H178.06V455.045C178.06 454.401 177.884 453.94 177.531 453.664C177.179 453.387 176.764 453.249 176.287 453.249C175.673 453.249 175.198 453.435 174.861 453.806C174.524 454.173 174.355 454.639 174.355 455.204V460.886H172.991V454.908C172.991 454.412 172.83 454.012 172.509 453.709C172.187 453.403 171.772 453.249 171.264 453.249C170.916 453.249 170.59 453.342 170.287 453.528C169.988 453.713 169.745 453.971 169.56 454.3C169.378 454.626 169.287 455.003 169.287 455.431V460.886H167.946ZM188.034 454.113L186.83 454.454C186.754 454.253 186.642 454.058 186.494 453.869C186.35 453.675 186.153 453.516 185.903 453.391C185.653 453.266 185.333 453.204 184.943 453.204C184.409 453.204 183.964 453.327 183.608 453.573C183.256 453.815 183.08 454.124 183.08 454.499C183.08 454.833 183.201 455.096 183.443 455.289C183.686 455.482 184.064 455.643 184.58 455.772L185.875 456.09C186.655 456.28 187.237 456.569 187.619 456.959C188.002 457.346 188.193 457.844 188.193 458.454C188.193 458.954 188.049 459.401 187.761 459.795C187.477 460.189 187.08 460.499 186.568 460.726C186.057 460.954 185.462 461.067 184.784 461.067C183.894 461.067 183.157 460.874 182.574 460.488C181.991 460.101 181.621 459.537 181.466 458.795L182.739 458.476C182.86 458.946 183.089 459.298 183.426 459.533C183.767 459.768 184.212 459.886 184.761 459.886C185.386 459.886 185.883 459.753 186.25 459.488C186.621 459.219 186.807 458.897 186.807 458.522C186.807 458.219 186.701 457.965 186.489 457.761C186.277 457.552 185.951 457.397 185.511 457.295L184.057 456.954C183.258 456.764 182.67 456.471 182.295 456.073C181.924 455.672 181.739 455.17 181.739 454.567C181.739 454.075 181.877 453.639 182.153 453.261C182.434 452.882 182.814 452.584 183.295 452.369C183.78 452.153 184.33 452.045 184.943 452.045C185.807 452.045 186.485 452.234 186.977 452.613C187.473 452.992 187.826 453.492 188.034 454.113ZM191.189 460.976C190.909 460.976 190.668 460.876 190.467 460.675C190.267 460.475 190.166 460.234 190.166 459.954C190.166 459.673 190.267 459.433 190.467 459.232C190.668 459.031 190.909 458.931 191.189 458.931C191.469 458.931 191.71 459.031 191.911 459.232C192.111 459.433 192.212 459.673 192.212 459.954C192.212 460.139 192.164 460.31 192.07 460.465C191.979 460.62 191.856 460.745 191.7 460.84C191.549 460.931 191.378 460.976 191.189 460.976ZM195.959 449.249V460.886H194.618V449.249H195.959ZM202.21 452.158V453.295H197.688V452.158H202.21ZM199.006 450.067H200.347V458.386C200.347 458.764 200.402 459.048 200.511 459.238C200.625 459.423 200.769 459.548 200.943 459.613C201.121 459.673 201.309 459.704 201.506 459.704C201.653 459.704 201.775 459.696 201.869 459.681C201.964 459.662 202.04 459.647 202.097 459.636L202.369 460.84C202.278 460.874 202.152 460.908 201.989 460.942C201.826 460.98 201.619 460.999 201.369 460.999C200.991 460.999 200.619 460.918 200.256 460.755C199.896 460.592 199.597 460.344 199.358 460.011C199.123 459.677 199.006 459.257 199.006 458.749V450.067Z" fill="#151D36"/>
<rect x="24" y="488.886" width="327" height="48" rx="6" fill="#286EE6"/>
<path d="M153.855 518.386H151.991L156.179 506.749H158.207L162.395 518.386H160.531L157.241 508.863H157.151L153.855 518.386ZM154.168 513.829H160.213V515.306H154.168V513.829ZM167.466 509.658V511.022H162.699V509.658H167.466ZM163.977 507.567H165.676V515.823C165.676 516.153 165.725 516.401 165.824 516.567C165.922 516.73 166.049 516.842 166.205 516.903C166.364 516.959 166.536 516.988 166.722 516.988C166.858 516.988 166.977 516.978 167.08 516.959C167.182 516.94 167.261 516.925 167.318 516.914L167.625 518.317C167.527 518.355 167.386 518.393 167.205 518.431C167.023 518.473 166.795 518.495 166.523 518.499C166.076 518.507 165.659 518.427 165.273 518.261C164.886 518.094 164.574 517.836 164.335 517.488C164.097 517.139 163.977 516.702 163.977 516.175V507.567ZM175.744 511.789L174.205 512.062C174.14 511.865 174.038 511.677 173.898 511.499C173.761 511.321 173.576 511.175 173.341 511.062C173.106 510.948 172.813 510.891 172.46 510.891C171.979 510.891 171.578 510.999 171.256 511.215C170.934 511.427 170.773 511.702 170.773 512.039C170.773 512.331 170.881 512.565 171.097 512.744C171.313 512.922 171.661 513.067 172.142 513.181L173.528 513.499C174.331 513.685 174.93 513.971 175.324 514.357C175.718 514.744 175.915 515.245 175.915 515.863C175.915 516.386 175.763 516.851 175.46 517.261C175.161 517.666 174.742 517.984 174.205 518.215C173.67 518.446 173.051 518.562 172.347 518.562C171.369 518.562 170.572 518.353 169.955 517.937C169.337 517.516 168.958 516.92 168.818 516.147L170.46 515.897C170.563 516.325 170.773 516.649 171.091 516.869C171.409 517.084 171.824 517.192 172.335 517.192C172.892 517.192 173.337 517.077 173.67 516.846C174.004 516.611 174.17 516.325 174.17 515.988C174.17 515.715 174.068 515.486 173.864 515.3C173.663 515.115 173.354 514.975 172.938 514.88L171.46 514.556C170.646 514.37 170.044 514.075 169.653 513.67C169.267 513.264 169.074 512.751 169.074 512.13C169.074 511.615 169.218 511.164 169.506 510.778C169.794 510.391 170.191 510.09 170.699 509.874C171.206 509.655 171.788 509.545 172.443 509.545C173.386 509.545 174.129 509.749 174.67 510.158C175.212 510.564 175.57 511.107 175.744 511.789ZM177.783 518.386V509.658H179.482V518.386H177.783ZM178.641 508.312C178.345 508.312 178.091 508.213 177.879 508.016C177.671 507.815 177.567 507.577 177.567 507.3C177.567 507.02 177.671 506.781 177.879 506.584C178.091 506.384 178.345 506.283 178.641 506.283C178.936 506.283 179.188 506.384 179.396 506.584C179.608 506.781 179.714 507.02 179.714 507.3C179.714 507.577 179.608 507.815 179.396 508.016C179.188 508.213 178.936 508.312 178.641 508.312ZM181.767 509.658H183.466V518.954C183.466 519.537 183.36 520.03 183.148 520.431C182.939 520.833 182.629 521.137 182.216 521.346C181.807 521.554 181.301 521.658 180.699 521.658C180.638 521.658 180.581 521.658 180.528 521.658C180.472 521.658 180.413 521.656 180.352 521.653V520.192C180.405 520.192 180.453 520.192 180.494 520.192C180.532 520.192 180.576 520.192 180.625 520.192C181.027 520.192 181.316 520.084 181.494 519.869C181.676 519.656 181.767 519.348 181.767 518.942V509.658ZM182.608 508.312C182.313 508.312 182.059 508.213 181.847 508.016C181.638 507.815 181.534 507.577 181.534 507.3C181.534 507.02 181.638 506.781 181.847 506.584C182.059 506.384 182.313 506.283 182.608 506.283C182.903 506.283 183.155 506.384 183.364 506.584C183.576 506.781 183.682 507.02 183.682 507.3C183.682 507.577 183.576 507.815 183.364 508.016C183.155 508.213 182.903 508.312 182.608 508.312ZM191.28 514.766V509.658H192.984V518.386H191.314V516.874H191.223C191.022 517.34 190.7 517.728 190.257 518.039C189.818 518.346 189.27 518.499 188.615 518.499C188.054 518.499 187.558 518.376 187.126 518.13C186.698 517.88 186.361 517.511 186.115 517.022C185.873 516.533 185.751 515.929 185.751 515.209V509.658H187.45V515.005C187.45 515.6 187.615 516.073 187.945 516.425C188.274 516.778 188.702 516.954 189.229 516.954C189.547 516.954 189.863 516.874 190.178 516.715C190.496 516.556 190.759 516.315 190.967 515.994C191.179 515.672 191.284 515.262 191.28 514.766ZM196.966 513.204V518.386H195.267V509.658H196.898V511.079H197.006C197.206 510.617 197.521 510.245 197.949 509.965C198.381 509.685 198.924 509.545 199.58 509.545C200.174 509.545 200.695 509.67 201.142 509.92C201.589 510.166 201.936 510.533 202.182 511.022C202.428 511.511 202.551 512.115 202.551 512.834V518.386H200.852V513.039C200.852 512.406 200.688 511.912 200.358 511.556C200.028 511.196 199.576 511.016 199 511.016C198.606 511.016 198.256 511.101 197.949 511.272C197.646 511.442 197.405 511.692 197.227 512.022C197.053 512.348 196.966 512.742 196.966 513.204ZM208.489 521.84C207.795 521.84 207.199 521.749 206.699 521.567C206.203 521.386 205.797 521.145 205.483 520.846C205.169 520.547 204.934 520.219 204.778 519.863L206.239 519.261C206.341 519.427 206.477 519.603 206.648 519.789C206.822 519.978 207.057 520.139 207.352 520.272C207.652 520.405 208.036 520.471 208.506 520.471C209.15 520.471 209.682 520.314 210.102 519.999C210.523 519.689 210.733 519.192 210.733 518.511V516.795H210.625C210.523 516.98 210.375 517.187 210.182 517.414C209.992 517.641 209.731 517.838 209.398 518.005C209.064 518.172 208.631 518.255 208.097 518.255C207.407 518.255 206.786 518.094 206.233 517.772C205.684 517.446 205.248 516.967 204.926 516.334C204.608 515.698 204.449 514.916 204.449 513.988C204.449 513.06 204.606 512.264 204.92 511.601C205.239 510.939 205.674 510.431 206.227 510.079C206.78 509.723 207.407 509.545 208.108 509.545C208.65 509.545 209.087 509.636 209.42 509.817C209.754 509.995 210.013 510.204 210.199 510.442C210.388 510.681 210.534 510.891 210.636 511.073H210.761V509.658H212.426V518.579C212.426 519.329 212.252 519.944 211.903 520.425C211.555 520.906 211.083 521.262 210.489 521.494C209.898 521.725 209.231 521.84 208.489 521.84ZM208.472 516.846C208.96 516.846 209.373 516.732 209.71 516.505C210.051 516.274 210.309 515.944 210.483 515.516C210.661 515.084 210.75 514.567 210.75 513.965C210.75 513.378 210.663 512.861 210.489 512.414C210.314 511.967 210.059 511.619 209.722 511.369C209.384 511.115 208.968 510.988 208.472 510.988C207.96 510.988 207.534 511.12 207.193 511.386C206.852 511.647 206.595 512.003 206.42 512.454C206.25 512.905 206.165 513.408 206.165 513.965C206.165 514.537 206.252 515.039 206.426 515.471C206.6 515.903 206.858 516.24 207.199 516.482C207.544 516.725 207.968 516.846 208.472 516.846ZM218.778 509.658V511.022H214.011V509.658H218.778ZM215.29 507.567H216.989V515.823C216.989 516.153 217.038 516.401 217.136 516.567C217.235 516.73 217.362 516.842 217.517 516.903C217.676 516.959 217.848 516.988 218.034 516.988C218.17 516.988 218.29 516.978 218.392 516.959C218.494 516.94 218.574 516.925 218.631 516.914L218.938 518.317C218.839 518.355 218.699 518.393 218.517 518.431C218.335 518.473 218.108 518.495 217.835 518.499C217.388 518.507 216.972 518.427 216.585 518.261C216.199 518.094 215.886 517.836 215.648 517.488C215.409 517.139 215.29 516.702 215.29 516.175V507.567ZM220.658 518.386V509.658H222.357V518.386H220.658ZM221.516 508.312C221.22 508.312 220.966 508.213 220.754 508.016C220.546 507.815 220.442 507.577 220.442 507.3C220.442 507.02 220.546 506.781 220.754 506.584C220.966 506.384 221.22 506.283 221.516 506.283C221.811 506.283 222.063 506.384 222.271 506.584C222.483 506.781 222.589 507.02 222.589 507.3C222.589 507.577 222.483 507.815 222.271 508.016C222.063 508.213 221.811 508.312 221.516 508.312Z" fill="white"/>
<path d="M471.801 340.667C499.042 320.663 516.824 288.505 517.137 252.07C517.61 196.987 477.991 151.006 425.493 141.787L425.746 112.415L374.587 162.701L424.874 213.857L425.166 179.831C456.894 188.315 480.136 217.394 479.841 251.757C479.633 275.954 467.801 297.332 449.692 310.635C443.512 315.175 436.598 318.767 429.17 321.217L444.649 336.964C455.045 332.228 464.219 325.659 471.879 317.757C492.341 298.643 504.136 271.169 502.956 242.278C507.596 277.118 492.779 311.097 465.853 331.721C465.23 332.198 464.6 332.667 463.965 333.131C458.35 337.216 452.233 340.729 445.685 343.568L429.241 359.732C444.895 356.422 459.34 349.818 471.801 340.667ZM384.903 391.018L436.061 340.734L385.775 289.577L385.495 322.016C354.505 313.05 331.965 284.335 332.256 250.491C332.528 218.765 352.786 191.893 380.975 181.707L366.476 166.958C354.048 172.78 343.156 181.343 334.605 191.897C322.034 204.485 312.85 220.491 308.613 238.461C312.214 204.152 333.775 175.226 363.645 161.161L382.523 142.606C332.885 153.331 295.557 197.232 295.101 250.166C294.633 304.697 333.455 350.312 385.168 360.167L384.903 391.018Z" fill="white" fill-opacity="0.1"/>
<rect x="120" y="799" width="135" height="5" rx="2.5" fill="#151D36"/>
<path d="M207.883 764.626H166.606C165.723 764.626 165 763.904 165 763.02V738.607C165 737.724 165.723 737.001 166.606 737.001H207.883C208.766 737.001 209.488 737.724 209.488 738.607V763.02C209.488 763.904 208.766 764.626 207.883 764.626Z" fill="url(#paint3_linear_79_247)"/>
<path d="M195.403 764.625H166.607C165.723 764.625 165.001 763.903 165.001 763.019V738.606C165.001 737.723 165.723 737 166.607 737H173.269C174.869 740.715 177.053 744.849 180.026 749.057C183.765 754.351 188.755 759.767 195.403 764.625Z" fill="url(#paint4_linear_79_247)"/>
<path d="M165 754.275V738.606C165 737.723 165.723 737 166.606 737H204.58C197.568 740.98 189.072 745.363 180.026 749.057C175.127 751.057 170.069 752.854 165 754.275Z" fill="url(#paint5_linear_79_247)"/>
<path d="M175.389 749.521V751.633H172.331V759.546H170.001V742.118H175.778V744.23H172.331V749.521H175.389Z" fill="white"/>
<path d="M182.89 746.803V745.274C182.89 744.578 182.551 744.23 181.872 744.23H181.507C180.844 744.23 180.511 744.578 180.511 745.274V748.162C180.511 748.486 180.576 748.705 180.706 748.818C180.836 748.931 181.046 749.076 181.337 749.254L183.545 750.444C184.032 750.719 184.376 750.933 184.578 751.087C184.779 751.241 184.938 751.427 185.05 751.645C185.164 751.864 185.221 752.281 185.221 752.895V756.609C185.221 758.568 184.283 759.546 182.405 759.546H180.972C179.112 759.546 178.181 758.478 178.181 756.342V755.469H180.511V756.415C180.511 757.095 180.86 757.435 181.555 757.435H181.968C182.583 757.435 182.89 757.095 182.89 756.415V753.454C182.89 753.13 182.826 752.912 182.696 752.798C182.567 752.685 182.357 752.54 182.064 752.361L179.856 751.124C179.371 750.865 179.019 750.646 178.801 750.468C178.582 750.29 178.423 750.06 178.327 749.776C178.231 749.493 178.181 749.125 178.181 748.672V745.104C178.181 743.113 179.112 742.118 180.972 742.118H182.429C184.291 742.118 185.221 743.113 185.221 745.104V746.803H182.89Z" fill="white"/>
<path d="M195.198 755.469V756.585C195.198 758.56 194.266 759.546 192.407 759.546H190.902C189.04 759.546 188.109 758.56 188.109 756.585V745.079C188.109 743.105 189.04 742.118 190.902 742.118H192.407C194.266 742.118 195.198 743.105 195.198 745.079V747.045H192.867V745.249C192.867 744.57 192.519 744.23 191.823 744.23H191.363C190.747 744.23 190.439 744.57 190.439 745.249V756.415C190.439 757.095 190.747 757.435 191.363 757.435H191.944C192.559 757.435 192.867 757.095 192.867 756.415V755.469H195.198Z" fill="white"/>
<path d="M205.054 755.467V756.583C205.054 758.558 204.122 759.545 202.26 759.545H200.756C198.897 759.545 197.964 758.558 197.964 756.583V745.078C197.964 743.103 198.897 742.116 200.756 742.116H202.26C204.122 742.116 205.054 743.103 205.054 745.078V747.043H202.724V745.247C202.724 744.568 202.375 744.228 201.679 744.228H201.218C200.604 744.228 200.294 744.568 200.294 745.247V756.413C200.294 757.093 200.604 757.433 201.218 757.433H201.8C202.414 757.433 202.724 757.093 202.724 756.413V755.467H205.054Z" fill="white"/>
</g>
<defs>
<filter id="filter0_d_79_247" x="-18" y="770.214" width="403" height="57.7856" filterUnits="userSpaceOnUse" color-interpolation-filters="sRGB">
<feFlood flood-opacity="0" result="BackgroundImageFix"/>
<feColorMatrix in="SourceAlpha" type="matrix" values="0 0 0 0 0 0 0 0 0 0 0 0 0 0 0 0 0 0 127 0" result="hardAlpha"/>
<feOffset dx="-4" dy="2"/>
<feGaussianBlur stdDeviation="7"/>
<feComposite in2="hardAlpha" operator="out"/>
<feColorMatrix type="matrix" values="0 0 0 0 0 0 0 0 0 0 0 0 0 0 0 0 0 0 0.1 0"/>
<feBlend mode="normal" in2="BackgroundImageFix" result="effect1_dropShadow_79_247"/>
<feBlend mode="normal" in="SourceGraphic" in2="effect1_dropShadow_79_247" result="shape"/>
</filter>
<linearGradient id="paint0_linear_79_247" x1="187.5" y1="0" x2="187.5" y2="812" gradientUnits="userSpaceOnUse">
<stop stop-color="#2575FC"/>
<stop offset="0.99" stop-color="#6A11CB"/>
</linearGradient>
<linearGradient id="paint1_linear_79_247" x1="206.676" y1="340" x2="206.676" y2="373.885" gradientUnits="userSpaceOnUse">
<stop stop-color="#2575FC"/>
<stop offset="1" stop-color="#1511CB"/>
</linearGradient>
<linearGradient id="paint2_linear_79_247" x1="153.558" y1="340" x2="153.558" y2="373.886" gradientUnits="userSpaceOnUse">
<stop stop-color="#2575FC"/>
<stop offset="1" stop-color="#1511CB"/>
</linearGradient>
<linearGradient id="paint3_linear_79_247" x1="214.192" y1="730.043" x2="181.676" y2="758.704" gradientUnits="userSpaceOnUse">
<stop stop-color="#4CB9E9"/>
<stop offset="0.277542" stop-color="#47A2DF"/>
<stop offset="0.561441" stop-color="#3C71C1"/>
<stop offset="1" stop-color="#2B3896"/>
</linearGradient>
<linearGradient id="paint4_linear_79_247" x1="173.059" y1="735.687" x2="183.418" y2="776.642" gradientUnits="userSpaceOnUse">
<stop stop-color="#4CB9E9"/>
<stop offset="0.277542" stop-color="#47A2DF"/>
<stop offset="0.561441" stop-color="#3C71C1"/>
<stop offset="1" stop-color="#2B3896"/>
</linearGradient>
<linearGradient id="paint5_linear_79_247" x1="159.092" y1="699.985" x2="205.458" y2="765.976" gradientUnits="userSpaceOnUse">
<stop stop-color="#4CB9E9"/>
<stop offset="0.277542" stop-color="#47A2DF"/>
<stop offset="0.561441" stop-color="#3C71C1"/>
<stop offset="1" stop-color="#2B3896"/>
</linearGradient>
<clipPath id="clip0_79_247">
<rect width="375" height="812" fill="white"/>
</clipPath>
<clipPath id="clip1_79_247">
<rect width="20" height="20" fill="white" transform="translate(278 79)"/>
</clipPath>
</defs>
</svg>
