<svg width="47" height="30" viewBox="0 0 47 30" fill="none" xmlns="http://www.w3.org/2000/svg">
<path d="M43.8827 28.6263H2.60618C1.72339 28.6263 1.00049 27.9036 1.00049 27.0202V2.607C1.00049 1.7237 1.72339 1.00098 2.60618 1.00098H43.8827C44.7655 1.00098 45.4884 1.7237 45.4884 2.607V27.0202C45.4884 27.9036 44.7655 28.6263 43.8827 28.6263Z" fill="url(#paint0_linear_1_921)"/>
<path d="M31.403 28.6254H2.60674C1.72337 28.6254 1.00061 27.9027 1.00061 27.0193V2.60612C1.00061 1.72274 1.72337 0.999985 2.60674 0.999985H9.26897C10.8687 4.71496 13.053 8.84915 16.026 13.0572C19.765 18.351 24.7553 23.7669 31.403 28.6254Z" fill="url(#paint1_linear_1_921)"/>
<path d="M1 18.2754V2.60612C1 1.72276 1.72291 1.00002 2.6061 1.00002H40.58C33.5685 4.97994 25.0719 9.36302 16.0257 13.057C11.1273 15.0568 6.06853 16.8541 1 18.2754Z" fill="url(#paint2_linear_1_921)"/>
<path d="M11.3894 13.5214V15.6333H8.33128V23.5464H6.00079V6.11795H11.778V8.22968H8.33128V13.5214H11.3894Z" fill="white"/>
<path d="M18.89 10.8029V9.27351C18.89 8.5779 18.5511 8.22968 17.8717 8.22968H17.5072C16.8438 8.22968 16.5114 8.5779 16.5114 9.27351V12.1621C16.5114 12.4859 16.5756 12.7045 16.7057 12.8176C16.8358 12.931 17.0462 13.0765 17.3369 13.2543L19.5453 14.4438C20.032 14.7191 20.3757 14.9334 20.5781 15.0871C20.7788 15.2409 20.9378 15.4269 21.0503 15.6453C21.1643 15.8638 21.2205 16.2806 21.2205 16.8954V20.6093C21.2205 22.5676 20.2825 23.5464 18.405 23.5464H16.9723C15.1124 23.5464 14.1808 22.4785 14.1808 20.3423V19.4686H16.5114V20.4151C16.5114 21.0948 16.8599 21.4346 17.5553 21.4346H17.9681C18.5832 21.4346 18.89 21.0948 18.89 20.4151V17.4539C18.89 17.1302 18.8258 16.9118 18.6957 16.7984C18.5672 16.6853 18.3568 16.5396 18.0645 16.3614L15.856 15.1235C15.371 14.8649 15.0193 14.6463 14.8008 14.4681C14.5824 14.2903 14.4234 14.0596 14.327 13.7763C14.2306 13.4935 14.1808 13.1252 14.1808 12.6718V9.10374C14.1808 7.1131 15.1124 6.11795 16.9723 6.11795H18.4291C20.2906 6.11795 21.2205 7.1131 21.2205 9.10374V10.8029H18.89Z" fill="white"/>
<path d="M31.198 19.4686V20.585C31.198 22.5596 30.2664 23.5464 28.4065 23.5464H26.9016C25.0401 23.5464 24.1085 22.5596 24.1085 20.585V9.07933C24.1085 7.10524 25.0401 6.11795 26.9016 6.11795H28.4065C30.2664 6.11795 31.198 7.10524 31.198 9.07933V11.0454H28.8675V9.24926C28.8675 8.56955 28.519 8.22968 27.8235 8.22968H27.3625C26.7474 8.22968 26.439 8.56955 26.439 9.24926V20.4151C26.439 21.0948 26.7474 21.4346 27.3625 21.4346H27.944C28.5591 21.4346 28.8675 21.0948 28.8675 20.4151V19.4686H31.198Z" fill="white"/>
<path d="M41.054 19.4668V20.5832C41.054 22.5578 40.1217 23.5447 38.2604 23.5447H36.7563C34.8967 23.5447 33.9644 22.5578 33.9644 20.5832V9.07752C33.9644 7.10336 34.8967 6.11603 36.7563 6.11603H38.2604C40.1217 6.11603 41.054 7.10336 41.054 9.07752V11.0435H38.7241V9.24743C38.7241 8.56781 38.3751 8.22784 37.6788 8.22784H37.2184C36.604 8.22784 36.2943 8.56781 36.2943 9.24743V20.4133C36.2943 21.0931 36.604 21.4329 37.2184 21.4329H37.8C38.4144 21.4329 38.7241 21.0931 38.7241 20.4133V19.4668H41.054Z" fill="white"/>
<defs>
<linearGradient id="paint0_linear_1_921" x1="50.1922" y1="-5.95663" x2="17.6764" y2="22.7039" gradientUnits="userSpaceOnUse">
<stop stop-color="#4CB9E9"/>
<stop offset="0.277542" stop-color="#47A2DF"/>
<stop offset="0.561441" stop-color="#3C71C1"/>
<stop offset="1" stop-color="#2B3896"/>
</linearGradient>
<linearGradient id="paint1_linear_1_921" x1="9.05856" y1="-0.312707" x2="19.4176" y2="40.6415" gradientUnits="userSpaceOnUse">
<stop stop-color="#4CB9E9"/>
<stop offset="0.277542" stop-color="#47A2DF"/>
<stop offset="0.561441" stop-color="#3C71C1"/>
<stop offset="1" stop-color="#2B3896"/>
</linearGradient>
<linearGradient id="paint2_linear_1_921" x1="-4.90757" y1="-36.0147" x2="41.4577" y2="29.976" gradientUnits="userSpaceOnUse">
<stop stop-color="#4CB9E9"/>
<stop offset="0.277542" stop-color="#47A2DF"/>
<stop offset="0.561441" stop-color="#3C71C1"/>
<stop offset="1" stop-color="#2B3896"/>
</linearGradient>
</defs>
</svg>
