<svg width="484" height="644" viewBox="0 0 484 644" fill="none" xmlns="http://www.w3.org/2000/svg">
<path d="M102.674 850.82C231.755 836.872 352.842 764.303 424.128 643.84C531.899 461.724 488.907 232.554 332.24 100.707L389.711 3.59527L122.772 72.0514L191.232 338.985L257.807 226.487C346.875 315.849 368.037 457.282 300.805 570.892C253.462 650.894 172.932 699.116 87.1083 708.405C57.8209 711.574 27.9246 710.18 -1.48278 703.998L19.5926 786.166C63.2649 790.475 106.413 786.334 147.101 774.845C251.943 750.784 344.106 682.237 395.886 583.963C344.133 708.674 229.386 793.012 100.157 809.626C97.1646 810.01 94.1685 810.357 91.1631 810.67C64.6306 813.42 37.5334 813.3 10.3004 810.109L-75.5033 832.112C-17.1077 851.294 43.6214 857.202 102.674 850.82ZM-283.148 850.585L-16.2127 782.136L-84.6721 515.199L-148.143 622.45C-233.831 532.908 -253.362 394.037 -187.145 282.141C-125.074 177.247 -5.95152 127.019 107.353 147.518L87.6125 70.5605C35.0909 65.9413 -17.6101 73.3966 -66.3706 91.9756C-132.409 109.568 -193.787 145.046 -242.51 196.588C-164.397 89.5276 -36.9874 34.9824 89.3826 45.8404L187.882 20.5813C2.27117 -39.4846 -206.405 34.4192 -309.975 209.429C-416.667 389.721 -375.617 616.137 -222.787 748.586L-283.148 850.585Z" fill="white" fill-opacity="0.1"/>
</svg>
