<svg width="101" height="34" viewBox="0 0 101 34" fill="none" xmlns="http://www.w3.org/2000/svg">
<g id="OMS_Blue">
<path id="Vector" d="M41.3348 3.05176e-05H43.8612C45.6018 3.05176e-05 47.1547 1.09355 47.7414 2.73229L55.0337 23.1036L62.5334 2.53995C63.0896 1.01482 64.5399 3.05176e-05 66.1633 3.05176e-05H69.1634L57.8984 28.5953C57.437 29.7665 56.3063 30.5364 55.0475 30.5364C53.775 30.5364 52.635 29.7499 52.1831 28.5603L41.3348 3.05176e-05ZM38.3511 2.98371C38.3511 1.33587 39.6869 3.05176e-05 41.3348 3.05176e-05H43.8612L44.863 9.28889V24.0549V33.8851H38.3511V2.98371ZM66.1633 3.05176e-05H69.1634C70.5617 3.05176e-05 71.6952 1.13352 71.6952 2.53176V33.8851H65.1613V24.0549V10.159L66.1633 3.05176e-05ZM93.9318 24.8023C93.9318 24.2134 93.8447 23.6849 93.6705 23.2168C93.5108 22.7335 93.2059 22.2956 92.7557 21.9031C92.3057 21.4953 91.6741 21.0952 90.861 20.7025C90.0478 20.31 88.9952 19.9022 87.703 19.4795C86.2655 18.9963 84.9007 18.4526 83.6085 17.8486C82.3308 17.2446 81.1982 16.5424 80.2109 15.7421C79.238 14.9267 78.4685 13.983 77.9023 12.9108C77.3505 11.8387 77.0746 10.5929 77.0746 9.17344C77.0746 7.7993 77.365 6.55355 77.9459 5.43617C78.5266 4.3036 79.3397 3.33722 80.3851 2.53691C81.4305 1.72146 82.6646 1.0948 84.0876 0.656888C85.5251 0.218983 87.1004 3.05176e-05 88.8137 3.05176e-05C91.1513 3.05176e-05 93.1914 0.437936 94.9336 1.31376C96.6761 2.18958 98.0264 3.3901 98.9847 4.91523C99.9575 6.44036 100.444 8.18444 100.444 10.1475H93.9536C93.9536 9.18097 93.7577 8.33543 93.3656 7.61062C92.9881 6.87073 92.4073 6.28937 91.6232 5.86654C90.8537 5.44371 89.8809 5.2323 88.7048 5.2323C87.5723 5.2323 86.6285 5.41344 85.8734 5.77585C85.1185 6.12318 84.5523 6.59889 84.1747 7.20286C83.7972 7.79176 83.6085 8.45616 83.6085 9.19617C83.6085 9.7548 83.7391 10.2607 84.0005 10.7138C84.2764 11.1667 84.6828 11.5896 85.2201 11.9821C85.7574 12.3747 86.418 12.7447 87.2021 13.092C87.9861 13.4393 88.8936 13.7791 89.9245 14.1112C91.6522 14.6549 93.1696 15.2664 94.4763 15.946C95.7976 16.6255 96.9011 17.3881 97.7867 18.2336C98.6725 19.0793 99.3404 20.0381 99.7905 21.1103C100.241 22.1824 100.466 23.398 100.466 24.757C100.466 26.1915 100.197 27.4751 99.6598 28.6075C99.1226 29.7401 98.3457 30.6989 97.3294 31.4842C96.313 32.2694 95.1007 32.8659 93.6923 33.2736C92.2838 33.6812 90.7085 33.8851 88.9662 33.8851C87.398 33.8851 85.8517 33.6737 84.3271 33.251C82.8026 32.813 81.4161 32.1561 80.1674 31.2803C78.9332 30.4045 77.9459 29.2871 77.2053 27.9281C76.4649 26.569 76.0946 24.9608 76.0946 23.1036H82.6501C82.6501 24.1304 82.8026 24.9987 83.1075 25.7083C83.4124 26.418 83.8407 26.9918 84.3925 27.4297C84.9587 27.8676 85.6267 28.1848 86.3962 28.381C87.1802 28.5774 88.037 28.6755 88.9662 28.6755C90.0987 28.6755 91.0279 28.5094 91.7539 28.1773C92.4945 27.845 93.0389 27.3845 93.3873 26.7955C93.7504 26.2066 93.9318 25.5422 93.9318 24.8023Z" fill="url(#paint0_linear_1_915)"/>
<path id="Vector_2" d="M16.2177 0.000217609C11.26 0.0261928 6.37672 2.40048 3.19776 6.86942C-1.60817 13.6255 -0.871411 22.8538 4.56391 28.6996L2.00107 32.3023L12.4085 30.6837L10.852 19.86L7.88319 24.0335C4.84946 20.1409 4.59874 14.4675 7.59688 10.2529C9.70811 7.28493 12.9557 5.7075 16.252 5.68962C17.3769 5.68354 18.507 5.86021 19.5999 6.22408L19.1207 2.89229C17.4787 2.54444 15.8235 2.53252 14.233 2.8209C10.1565 3.34496 6.38759 5.67805 4.03638 9.34974C6.48994 4.63355 11.1785 1.7685 16.1522 1.63781C16.2674 1.63481 16.3826 1.6333 16.4979 1.63316C17.5165 1.63245 18.5454 1.74739 19.5673 1.98424L22.9126 1.46402C20.7695 0.468682 18.4858 -0.0117359 16.2177 0.000217609ZM30.8723 1.57884L20.465 3.19715L22.0214 14.0209L24.8518 10.0422C27.7565 13.9281 27.9553 19.4936 25.0024 23.6447C22.2344 27.5361 17.513 29.0358 13.2894 27.7651L13.7382 30.8856C15.7152 31.2817 17.7462 31.2016 19.671 30.666C22.2483 30.2396 24.7185 29.0877 26.7708 27.2497C23.385 31.1614 18.332 32.798 13.5743 31.855L9.73399 32.4522C16.5495 35.5801 24.7651 33.5093 29.3837 27.0168C34.1415 20.3284 33.4678 11.2168 28.1805 5.3628L30.8723 1.57884Z" fill="url(#paint1_linear_1_915)"/>
</g>
<defs>
<linearGradient id="paint0_linear_1_915" x1="69.4084" y1="3.05176e-05" x2="69.4084" y2="33.8851" gradientUnits="userSpaceOnUse">
<stop stop-color="#2575FC"/>
<stop offset="1" stop-color="#1511CB"/>
</linearGradient>
<linearGradient id="paint1_linear_1_915" x1="16.2909" y1="0" x2="16.2909" y2="33.8856" gradientUnits="userSpaceOnUse">
<stop stop-color="#2575FC"/>
<stop offset="1" stop-color="#1511CB"/>
</linearGradient>
</defs>
</svg>
